# xmcd CD database file
#
# Track frame offsets:
#	150
#	22282
#	55743
#	73439
#	104866
#	125000
#	152921
#	168234
#	185911
#	200767
#	220471
#	241063
#
# Disc length: 3444 seconds
#
# Revision: 0
# Processed by: cddbd v1.5.2PL0 Copyright (c) Steve Scherf et al.
# Submitted via: CDex 1.51
#
DISCID=c60d720c
DTITLE=Jeff Menteer - The Nature Of My Dreams
DYEAR=2011
DGENRE=Blues
TTITLE0=The Great Mystery That Surrounds Us
TTITLE1=There's Gotta Be Something
TTITLE2=With You
TTITLE3=I Hope I'm Wrong
TTITLE4=Honk Honk
TTITLE5=So Much For So Little
TTITLE6=Lonesome Dave
TTITLE7=Ford Shuffle
TTITLE8=Walking On Ice
TTITLE9=Back Again
TTITLE10=Weak Weak Man
TTITLE11=Good Question
EXTD=YEAR: 2011
EXTT0=
EXTT1=
EXTT2=
EXTT3=
EXTT4=
EXTT5=
EXTT6=
EXTT7=
EXTT8=
EXTT9=
EXTT10=
EXTT11=
PLAYORDER=
